<svg width="80" height="80" viewBox="0 0 80 80" fill="none" xmlns="http://www.w3.org/2000/svg">
<path d="M40.0001 18L58.1771 26.25H60.6251C61.3845 26.25 62.0001 26.8656 62.0001 27.625L62 33.125C62 33.8844 61.3844 34.5 60.625 34.5H59.25L59.2501 53.75C59.881 53.75 60.431 54.1829 60.584 54.795L61.959 60.295C62.0617 60.7058 61.9694 61.1438 61.7088 61.4775C61.4483 61.8112 61.0485 62 60.6251 62H19.3751C18.9517 62 18.5519 61.8112 18.2913 61.4775C18.0307 61.1438 17.9384 60.7058 18.0411 60.295L19.4161 54.795C19.5691 54.1829 20.1191 53.75 20.7501 53.75L20.75 34.5H19.375C18.6156 34.5 18 33.8844 18 33.125L18.0001 27.625C18.0001 26.8656 18.6157 26.25 19.3751 26.25H21.8231L40.0001 18ZM28.3854 26.25H51.6147L40.0001 20.75L28.3854 26.25ZM23.5 34.5L23.5001 53.75H26.2501L26.25 34.5H23.5ZM29 34.5L29.0001 53.75H35.8751L35.875 34.5H29ZM38.625 34.5L38.6251 53.75H41.3751L41.375 34.5H38.625ZM44.125 34.5L44.1251 53.75H51.0001L51 34.5H44.125ZM53.75 34.5L53.7501 53.75H56.5V34.5H53.75ZM59.2501 31.75V29H20.7501V31.75H59.2501ZM58.1765 56.5H21.8236L21.1361 59.25H58.864L58.1765 56.5Z" fill="black"/>
</svg>
