<svg width="80" height="80" viewBox="0 0 80 80" fill="none" xmlns="http://www.w3.org/2000/svg">
<path d="M59.25 56.5C59.25 56.5 62 56.5 62 53.75C62 51 59.25 42.75 48.25 42.75C37.25 42.75 34.5 51 34.5 53.75C34.5 56.5 37.25 56.5 37.25 56.5H59.25ZM37.3115 53.75C37.3019 53.7489 37.2886 53.7471 37.2724 53.7444C37.2648 53.7432 37.2573 53.7418 37.25 53.7404C37.254 53.0143 37.7089 50.909 39.338 49.0084C40.8617 47.2307 43.5274 45.5 48.25 45.5C52.9726 45.5 55.6383 47.2307 57.162 49.0084C58.7911 50.909 59.246 53.0143 59.25 53.7404C59.2427 53.7418 59.2352 53.7432 59.2276 53.7444C59.2114 53.7471 59.1981 53.7489 59.1885 53.75H37.3115Z" fill="black"/>
<path d="M48.25 37.25C51.2876 37.25 53.75 34.7876 53.75 31.75C53.75 28.7124 51.2876 26.25 48.25 26.25C45.2124 26.25 42.75 28.7124 42.75 31.75C42.75 34.7876 45.2124 37.25 48.25 37.25ZM56.5 31.75C56.5 36.3063 52.8063 40 48.25 40C43.6937 40 40 36.3063 40 31.75C40 27.1937 43.6937 23.5 48.25 23.5C52.8063 23.5 56.5 27.1937 56.5 31.75Z" fill="black"/>
<path d="M37.0738 43.5199C36.0624 43.1964 34.9387 42.9612 33.6923 42.8409C33.0754 42.7814 32.4284 42.75 31.75 42.75C20.75 42.75 18 51 18 53.75C18 55.5833 18.9167 56.5 20.75 56.5H32.345C31.9578 55.7188 31.75 54.7926 31.75 53.75C31.75 50.9717 32.7874 48.1346 34.747 45.7645C35.4165 44.9548 36.1936 44.1996 37.0738 43.5199ZM31.5301 45.5013C29.887 48.0124 29 50.8754 29 53.75H20.75C20.75 53.033 21.2017 50.9174 22.838 49.0084C24.3379 47.2585 26.9444 45.5541 31.5301 45.5013Z" fill="black"/>
<path d="M22.125 33.125C22.125 28.5687 25.8187 24.875 30.375 24.875C34.9313 24.875 38.625 28.5687 38.625 33.125C38.625 37.6813 34.9313 41.375 30.375 41.375C25.8187 41.375 22.125 37.6813 22.125 33.125ZM30.375 27.625C27.3374 27.625 24.875 30.0874 24.875 33.125C24.875 36.1626 27.3374 38.625 30.375 38.625C33.4126 38.625 35.875 36.1626 35.875 33.125C35.875 30.0874 33.4126 27.625 30.375 27.625Z" fill="black"/>
</svg>
