<svg width="80" height="80" viewBox="0 0 80 80" fill="none" xmlns="http://www.w3.org/2000/svg">
<path d="M25.3098 48.3207C26.0302 48.5608 26.4196 49.3395 26.1794 50.0599L24.8044 54.1849C24.5643 54.9053 23.7856 55.2947 23.0652 55.0545C22.3448 54.8144 21.9554 54.0357 22.1956 53.3153L23.5706 49.1903C23.8107 48.4699 24.5894 48.0805 25.3098 48.3207ZM51.4348 48.3207C52.1552 48.5608 52.5446 49.3395 52.3044 50.0599L50.9294 54.1849C50.6893 54.9053 49.9106 55.2947 49.1902 55.0545C48.4698 54.8144 48.0804 54.0357 48.3206 53.3153L49.6956 49.1903C49.9357 48.4699 50.7144 48.0805 51.4348 48.3207ZM30.8098 52.4457C31.5302 52.6858 31.9196 53.4645 31.6794 54.1849L30.3044 58.3099C30.0643 59.0303 29.2856 59.4197 28.5652 59.1795C27.8448 58.9394 27.4554 58.1607 27.6956 57.4403L29.0706 53.3153C29.3107 52.5949 30.0894 52.2055 30.8098 52.4457ZM56.9348 52.4457C57.6552 52.6858 58.0446 53.4645 57.8044 54.1849L56.4294 58.3099C56.1893 59.0303 55.4106 59.4197 54.6902 59.1795C53.9698 58.9394 53.5804 58.1607 53.8206 57.4403L55.1956 53.3153C55.4357 52.5949 56.2144 52.2055 56.9348 52.4457Z" fill="black"/>
<path d="M54.8646 29.0748C53.6191 22.7609 48.0538 18.0001 41.375 18.0001C35.7101 18.0001 30.8482 21.4251 28.7417 26.3143C28.375 26.2719 28.0023 26.2501 27.625 26.2501C22.3093 26.2501 18 30.5594 18 35.8751C18 41.1908 22.3093 45.5001 27.625 45.5001H53.75C58.3063 45.5001 62 41.8064 62 37.2501C62 33.0718 58.8938 29.6189 54.8646 29.0748ZM41.375 20.7501C47.0362 20.7501 51.7002 25.0279 52.3078 30.5265C52.3851 31.226 52.9781 31.7543 53.6819 31.7505L53.75 31.7501L53.7535 31.7501C56.7895 31.752 59.25 34.2137 59.25 37.2501C59.25 40.2877 56.7876 42.7501 53.75 42.7501H27.625C23.828 42.7501 20.75 39.6721 20.75 35.8751C20.75 32.0781 23.828 29.0001 27.625 29.0001C28.2006 29.0001 28.7579 29.0705 29.2895 29.2026C29.9876 29.3761 30.7013 28.9822 30.9268 28.2992C32.3746 23.9128 36.5073 20.7501 41.375 20.7501Z" fill="black"/>
<path d="M37.3952 49.0102C37.6281 48.5443 38.1042 48.2501 38.625 48.2501H41.375C41.817 48.2501 42.232 48.4626 42.4905 48.8211C42.7489 49.1797 42.8192 49.6406 42.6794 50.0599L41.9077 52.3751H44.125C44.6536 52.3751 45.1353 52.6781 45.3643 53.1545C45.5933 53.6308 45.5289 54.1963 45.1987 54.6091L39.6987 61.4841C39.2949 61.9888 38.594 62.1441 38.0147 61.8573C37.4355 61.5704 37.1343 60.9187 37.2911 60.2916L38.2389 56.5001H35.875C35.3985 56.5001 34.9559 56.2533 34.7054 55.848C34.4548 55.4426 34.432 54.9364 34.6452 54.5102L37.3952 49.0102Z" fill="black"/>
</svg>
