<svg xmlns="http://www.w3.org/2000/svg" width="386.938" height="98.518" viewBox="0 0 386.938 98.518">
  <g id="Group_3307" data-name="Group 3307" transform="translate(-47.139 321.032)">
    <path id="type" d="M496.4-231.456h9.348v-34.5H496.4Zm0-40.484h9.348v-7.629H496.4ZM478.242-248.5c0,5.567-1.993,10.31-6.53,10.31-4.193,0-6.873-4.261-6.873-10.929,0-6.049,2.2-10.241,6.736-10.241,4.743,0,6.667,4.674,6.667,9.416Zm.55,17.046h8.867v-48.526h-9.417v18.352c-1.375-2.887-4.605-5.293-9.417-5.293-7.08,0-13.747,5.293-13.747,17.94,0,11.479,5.5,18.283,13.816,18.283a10.213,10.213,0,0,0,9.9-6.324Zm-40.153,0h9.348v-34.5h-9.348Zm0-40.484h9.348v-7.629h-9.348Zm-39.809,40.484h9.348v-17.458c0-6.6,2.818-9.9,6.8-9.9,3.849,0,5.7,2.749,5.7,7.561v19.8h9.348v-21.376c0-9-3.505-14.159-11.066-14.159-5.568,0-9.142,2.956-10.791,6.392v-19.383h-9.348Zm-18.364-13.953c0,5.155-3.231,8.386-7.148,8.386a4.436,4.436,0,0,1-4.674-4.674c0-2.681,1.718-4.124,5.842-4.88l5.98-1.1Zm10.722,13.953c-1.168-2.818-1.306-4.605-1.306-9.829v-12.922c0-8.66-3.918-12.785-13.541-12.785-7.561,0-12.853,2.612-15.671,5.361l4.468,6.186a13.367,13.367,0,0,1,10.035-4.4c3.093,0,5.293.894,5.293,4.949v1.306l-7.63,1.169c-7.836,1.168-13.128,3.987-13.128,11.066,0,6.392,4.124,11,11.2,11,5.293,0,8.661-2.612,10.1-5.98a17.019,17.019,0,0,0,1.031,4.88Zm-69.915,0h9.348v-17.458c0-6.6,2.818-9.9,6.8-9.9,3.849,0,5.7,2.749,5.7,7.561v19.8h9.348v-21.376c0-9-3.505-14.159-11.066-14.159-5.568,0-9.142,2.956-10.791,6.392v-19.383h-9.348Zm-36.029-4.055c3.78,3.368,9,5.155,15.19,5.155,6.873,0,14.09-3.712,14.09-11.41,0-12.235-18.558-9.623-18.558-15.465,0-2.131,1.856-2.956,3.987-2.956a15.676,15.676,0,0,1,9.691,3.574l4.33-6.186c-3.505-2.681-7.9-4.193-13.678-4.193-7.08,0-13.816,3.3-13.816,10.791,0,12.785,18.627,9.21,18.627,15.6,0,2.406-2.612,3.368-5.086,3.368a14.812,14.812,0,0,1-10.379-4.605Zm-45.721-12.853c0,7.492,2.474,18.008,19.246,18.008s19.246-10.448,19.246-18.008v-31.618H267.979v31.068c0,6.873-3.368,9.829-9.21,9.829s-9.21-2.956-9.21-10.035v-30.862H239.523Z" transform="translate(-72.172 -15.4)" fill="#fff" stroke="#fff" stroke-miterlimit="10" stroke-width="1"/>
    <path id="Path_266" data-name="Path 266" d="M197.7-211.832a8.532,8.532,0,0,0-8.531,8.532,8.531,8.531,0,0,0,8.531,8.531,8.532,8.532,0,0,0,8.532-8.531A8.532,8.532,0,0,0,197.7-211.832Z" transform="translate(-53.283 -40.966)" fill="#ffc334" fill-rule="evenodd"/>
    <path id="Path_267" data-name="Path 267" d="M140.864-293.871a14.178,14.178,0,0,0,5.118-10.917A14.209,14.209,0,0,0,131.772-319a14.173,14.173,0,0,0-7.558,2.192,6.252,6.252,0,0,0-5.918-4.227,6.237,6.237,0,0,0-4.941,2.426,43.072,43.072,0,0,0-12.366-1.806,43.185,43.185,0,0,0-37.482,21.719,18.646,18.646,0,0,0-16.368,18.508,18.652,18.652,0,0,0,13.276,17.859A43.313,43.313,0,0,0,76-241.965a29.736,29.736,0,0,0,27.9,19.451,29.722,29.722,0,0,0,29.5-26.131,43.04,43.04,0,0,0,10.8-28.562,43.129,43.129,0,0,0-3.335-16.664M100.99-243.356a33.851,33.851,0,0,1-33.851-33.852,33.854,33.854,0,0,1,33.851-33.851,33.851,33.851,0,0,1,33.851,33.851,33.848,33.848,0,0,1-33.851,33.852" fill="#ffc334" fill-rule="evenodd"/>
    <path id="Path_268" data-name="Path 268" d="M58.318-290.673a4.856,4.856,0,0,0,4.856-4.856,4.855,4.855,0,0,0-4.856-4.855,4.855,4.855,0,0,0-4.855,4.855A4.855,4.855,0,0,0,58.318-290.673Z" transform="translate(-2.372 -7.746)" fill="#ffc334" fill-rule="evenodd"/>
    <g id="Group_2532" data-name="Group 2532" transform="translate(71.494 -307.375)">
      <path id="Path_269" data-name="Path 269" d="M132.056-203.662c.211.009.424.021.627.024-.161-.006-.336-.013-.516-.022C132.13-203.66,132.093-203.66,132.056-203.662Z" transform="translate(-103.35 263.344)" fill="#ffc334"/>
      <path id="Path_270" data-name="Path 270" d="M89.637-269.471c0-.006,0-.012.006-.017l-.043.109.009-.019C89.619-269.422,89.627-269.446,89.637-269.471Z" transform="translate(-87.423 288.039)" fill="#ffc334"/>
      <path id="Path_271" data-name="Path 271" d="M157.589-292.878l-.1-.06-.062-.034Z" transform="translate(-112.867 296.849)" fill="#ffc334"/>
      <path id="Path_272" data-name="Path 272" d="M134.515-209.965a50.386,50.386,0,0,1-11.112-2.077c-1.134,2.3-2.054,3.659-2.674,3.965a31.209,31.209,0,0,0,6.558,1.242l.236.012A10.326,10.326,0,0,0,134.515-209.965Z" transform="translate(-99.101 266.488)" fill="#ffc334"/>
      <path id="Path_273" data-name="Path 273" d="M131.556-203.69c-.024,0-.049,0-.074,0,.121.007.238.008.359.014.037,0,.074,0,.111,0Z" transform="translate(-103.135 263.355)" fill="#ffc334"/>
      <path id="Path_275" data-name="Path 275" d="M94.2-278.132c.05-.075.1-.149.153-.223C94.306-278.28,94.254-278.207,94.2-278.132Z" transform="translate(-89.15 291.365)" fill="#ffc334"/>
      <path id="Path_276" data-name="Path 276" d="M147.96-209.978c.43-.252.854-.515,1.267-.8a19.642,19.642,0,0,1-8.248,1.358,11.643,11.643,0,0,1-7.629,3.108c.113,0,.226.009.339.009a29.728,29.728,0,0,0,12.476-2.733l.127-.064C146.8-209.356,147.38-209.662,147.96-209.978Z" transform="translate(-103.836 266.013)" fill="#ffc334"/>
      <path id="Path_278" data-name="Path 278" d="M120.189-205.62a29.6,29.6,0,0,0,3.223.767,30.16,30.16,0,0,1-3.1-.754Z" transform="translate(-98.898 264.079)" fill="#ffc334"/>
      <path id="Path_280" data-name="Path 280" d="M119.277-205.9c.175.056.351.111.527.164l-.459-.141Z" transform="translate(-98.556 264.184)" fill="#ffc334"/>
      <path id="Path_281" data-name="Path 281" d="M126.566-204.189q-.387-.055-.782-.126C126.044-204.27,126.3-204.226,126.566-204.189Z" transform="translate(-100.997 263.589)" fill="#ffc334"/>
      <path id="Path_282" data-name="Path 282" d="M92.676-276.108l.57-.929C93.051-276.731,92.86-276.422,92.676-276.108Z" transform="translate(-88.577 290.871)" fill="#ffc334"/>
      <path id="Path_283" data-name="Path 283" d="M107.164-211.788l-.106-.073Z" transform="translate(-93.972 266.42)" fill="#ffc334"/>
      <path id="Path_284" data-name="Path 284" d="M111.452-209.291c-.848-.4-1.644-.834-2.373-1.272l-.251-.154a29.707,29.707,0,0,0,6.1,2.862l.039-.012A32.706,32.706,0,0,1,111.452-209.291Z" transform="translate(-94.637 265.991)" fill="#ffc334"/>
      <path id="Path_285" data-name="Path 285" d="M129-203.867l-.234-.026Z" transform="translate(-102.117 263.431)" fill="#ffc334"/>
      <path id="Path_286" data-name="Path 286" d="M105.287-213.131l-.146-.106c.222.167.449.327.676.489l-.448-.323Z" transform="translate(-93.253 266.936)" fill="#ffc334"/>
      <path id="Path_287" data-name="Path 287" d="M130.868-203.73l-.593-.036c.37.028.74.051,1.113.065-.121-.006-.237-.007-.359-.014C130.977-203.719,130.92-203.727,130.868-203.73Z" transform="translate(-102.682 263.383)" fill="#ffc334"/>
      <path id="Path_288" data-name="Path 288" d="M98.811-247.138a31.362,31.362,0,0,1-7.991-7.319,23.431,23.431,0,0,0-.948,12.146,27.449,27.449,0,0,0,7,6.409A31.1,31.1,0,0,1,98.811-247.138Z" transform="translate(-87.37 282.4)" fill="#ffc334"/>
      <path id="Path_289" data-name="Path 289" d="M104.021-221.284c.172,2.873,1.034,5.022,2.516,6.247a31.5,31.5,0,0,0,2.812,1.52,36.776,36.776,0,0,0,3.907,1.587,28.869,28.869,0,0,0,1.882-4.217,58.136,58.136,0,0,1-6.466-2.625A51.727,51.727,0,0,1,104.021-221.284Z" transform="translate(-92.833 269.955)" fill="#ffc334"/>
      <path id="Path_290" data-name="Path 290" d="M100.568-256.561a59.129,59.129,0,0,1,6.633-12.4,27.154,27.154,0,0,1-6.909-6.324,33.982,33.982,0,0,0-7.71,11.408A31.4,31.4,0,0,0,100.568-256.561Z" transform="translate(-88.542 290.213)" fill="#ffc334"/>
      <path id="Path_291" data-name="Path 291" d="M105.186-284.908A36.778,36.778,0,0,1,117.3-291.76a3.639,3.639,0,0,1-.5-3.221,28.753,28.753,0,0,0-12.47,4.617C103.693-288.772,104.022-286.895,105.186-284.908Z" transform="translate(-92.83 297.602)" fill="#ffc334"/>
      <path id="Path_292" data-name="Path 292" d="M168.151-252.741a19.968,19.968,0,0,1-8.429,1.386,48.474,48.474,0,0,1-2.234,13.824,23.118,23.118,0,0,0,9.749-1.6A30.867,30.867,0,0,0,168.151-252.741Z" transform="translate(-112.891 281.756)" fill="#ffc334"/>
      <path id="Path_293" data-name="Path 293" d="M142.956-227.413a59.522,59.522,0,0,1-13.147-2.459c-1.52,4.251-2.916,7.7-4.107,10.236a52.245,52.245,0,0,0,11.512,2.154A29.376,29.376,0,0,0,142.956-227.413Z" transform="translate(-100.967 273.177)" fill="#ffc334"/>
      <path id="Path_294" data-name="Path 294" d="M106.965-281.577a26.148,26.148,0,0,0,6.657,6.094,55.749,55.749,0,0,1,9.111-9.778,15.405,15.405,0,0,1-3.927-3.6A38.276,38.276,0,0,0,106.965-281.577Z" transform="translate(-93.937 295.305)" fill="#ffc334"/>
      <path id="Path_295" data-name="Path 295" d="M146.993-216.847a20.374,20.374,0,0,0,8.539-1.407,23.244,23.244,0,0,0,7.214-10.116,23.151,23.151,0,0,1-9.758,1.6A27.215,27.215,0,0,1,146.993-216.847Z" transform="translate(-108.954 272.613)" fill="#ffc334"/>
      <path id="Path_296" data-name="Path 296" d="M140.816-264.251a49.748,49.748,0,0,0,10.951,2.049,52.366,52.366,0,0,0-1.325-13.366,29.676,29.676,0,0,1-6.462-1.21C143.165-273.018,142.074-268.721,140.816-264.251Z" transform="translate(-106.636 290.773)" fill="#ffc334"/>
      <path id="Path_297" data-name="Path 297" d="M89.263-269.207q-.263.654-.5,1.323l.063-.183Z" transform="translate(-87.111 287.933)" fill="#ffc334"/>
      <path id="Path_298" data-name="Path 298" d="M167.977-263.192a35.83,35.83,0,0,0-5.361-12.847,11.44,11.44,0,0,1-4.793.787,48.029,48.029,0,0,1,2.03,13.394A19.263,19.263,0,0,0,167.977-263.192Z" transform="translate(-113.016 290.496)" fill="#ffc334"/>
      <path id="Path_299" data-name="Path 299" d="M173.012-266.1a4.639,4.639,0,0,0,1.791-3.932,25.878,25.878,0,0,0-6.838-10.779,2.743,2.743,0,0,1-1.054,2.321,4.463,4.463,0,0,1-.481.348,34.38,34.38,0,0,1,5.77,12.628A6.891,6.891,0,0,0,173.012-266.1Z" transform="translate(-116.246 292.287)" fill="#ffc334"/>
      <path id="Path_300" data-name="Path 300" d="M106.146-240.8a35.134,35.134,0,0,0-2.178,11.084,54.023,54.023,0,0,0,4.818,2.6,60.4,60.4,0,0,0,6.7,2.716c1.005-2.588,2.3-6.076,3.812-10.326a69.349,69.349,0,0,1-7.648-3.107A59.628,59.628,0,0,1,106.146-240.8Z" transform="translate(-92.813 277.276)" fill="#ffc334"/>
      <path id="Path_301" data-name="Path 301" d="M119.522-260.918a51.367,51.367,0,0,1-4.756-2.568,68.883,68.883,0,0,0-6.375,12.561,60.069,60.069,0,0,0,5.494,2.968,69.67,69.67,0,0,0,7.648,3.1c1.539-4.355,3.111-8.935,4.6-13.381A59.542,59.542,0,0,1,119.522-260.918Z" transform="translate(-94.472 285.787)" fill="#ffc334"/>
      <path id="Path_302" data-name="Path 302" d="M148.841-251.912a51.481,51.481,0,0,1-11.364-2.126c-1.3,4.5-2.759,9.12-4.279,13.481a59.625,59.625,0,0,0,13.138,2.459A54.663,54.663,0,0,0,148.841-251.912Z" transform="translate(-103.779 282.243)" fill="#ffc334"/>
      <path id="Path_303" data-name="Path 303" d="M120.142-271.954a49.877,49.877,0,0,0,4.58,2.473,57.342,57.342,0,0,0,6.375,2.587c1.463-4.4,2.826-8.615,3.97-12.27a33.305,33.305,0,0,1-3.76-1.525,29.885,29.885,0,0,1-2.7-1.458A63.018,63.018,0,0,0,120.142-271.954Z" transform="translate(-98.881 292.788)" fill="#ffc334"/>
      <path id="Path_304" data-name="Path 304" d="M172.476-235.6a5.985,5.985,0,0,1-1.805,2.454,8.851,8.851,0,0,1-.972.705,23.318,23.318,0,0,1-7.363,10.193c.192-.12.371-.247.544-.376a29.88,29.88,0,0,0,10.254-14.9L172.7-236.2Z" transform="translate(-114.71 276.051)" fill="#ffc334"/>
      <path id="Path_305" data-name="Path 305" d="M100.127-288.971a5.7,5.7,0,0,1,1.092-1.21c.119-.1.238-.191.367-.281l1.2-.826c.156-.117.316-.229.487-.336a30,30,0,0,0-8.092,7.651A24.526,24.526,0,0,1,100.127-288.971Z" transform="translate(-89.516 296.343)" fill="#ffc334"/>
      <path id="Path_306" data-name="Path 306" d="M90.451-269.157a32.027,32.027,0,0,1,7.82-11.241c-1.206-2.058-1.544-4.012-.877-5.661a25.071,25.071,0,0,0-6.92,8.173c-.377.759-.755,1.552-1.052,2.229C88.674-273.761,89.066-271.521,90.451-269.157Z" transform="translate(-87.216 294.255)" fill="#ffc334"/>
      <path id="Path_307" data-name="Path 307" d="M135.52-299.135c.234.006.472.015.713.028C136-299.121,135.757-299.127,135.52-299.135Z" transform="translate(-104.65 299.161)" fill="#ffc334"/>
      <path id="Path_308" data-name="Path 308" d="M128.515-290.763a13.832,13.832,0,0,0,3.507,3.212,26.571,26.571,0,0,1,8.92-4.732A30.888,30.888,0,0,0,128.515-290.763Z" transform="translate(-102.022 296.634)" fill="#ffc334"/>
      <path id="Path_309" data-name="Path 309" d="M128.145-297.533a2.871,2.871,0,0,0-.552.615,31.233,31.233,0,0,1,13,2.315,20.742,20.742,0,0,0-10.06-3.978A5.489,5.489,0,0,0,128.145-297.533Z" transform="translate(-101.676 298.953)" fill="#ffc334"/>
      <path id="Path_310" data-name="Path 310" d="M89.614-269.387l.019-.043c0-.01.006-.021.009-.031C89.633-269.436,89.624-269.411,89.614-269.387Z" transform="translate(-87.428 288.028)" fill="#ffc334"/>
      <path id="Path_311" data-name="Path 311" d="M88.76-260.151c-1.31-2.24-1.735-4.363-1.146-6.193a29.819,29.819,0,0,0-1.5,9.343,29.923,29.923,0,0,0,.774,6.746,9.519,9.519,0,0,0,1.022,2.4A23.262,23.262,0,0,1,88.76-260.151Z" transform="translate(-86.116 286.859)" fill="#ffc334"/>
      <path id="Path_312" data-name="Path 312" d="M127.139-295.293a3.258,3.258,0,0,0,.443,2.873,31.715,31.715,0,0,1,12.78-.977A32.14,32.14,0,0,0,127.139-295.293Z" transform="translate(-101.442 297.748)" fill="#ffc334"/>
      <path id="Path_314" data-name="Path 314" d="M143.529-298.193l-.3-.057c1.272.262,2.363,1.482,3.174,3.759,1.3-1.548,2.225-2.144,2.778-1.9l1.015.462c-.852-.406-2.12.033-3.793,1.438a14.913,14.913,0,0,1,8.92,1.825,20.009,20.009,0,0,0-3.016-2.143l-.1-.061-.164-.094c-.159-.091-.319-.182-.484-.272l-.018-.01c-.119-.064-.244-.128-.366-.192a29.621,29.621,0,0,0-8.095-2.844l.128.024Z" transform="translate(-107.487 298.841)" fill="#ffc334"/>
      <path id="Path_315" data-name="Path 315" d="M156.491-293.492c.092.05.182.1.271.15q-.267-.149-.537-.292l.248.132Z" transform="translate(-112.417 297.097)" fill="#ffc334"/>
      <path id="Path_316" data-name="Path 316" d="M91.915-229.685c-.314-.481-.639-.995-.9-1.417l-.066-.115a19.839,19.839,0,0,1-1.935-4.5,9.582,9.582,0,0,1-.907-2.031,29.7,29.7,0,0,0,4.253,8.725c-.114-.164-.234-.344-.357-.531Z" transform="translate(-86.861 276.133)" fill="#ffc334"/>
      <path id="Path_317" data-name="Path 317" d="M132.372-299.154c-.3-.009-.593-.022-.892-.022a30.1,30.1,0,0,0-4.017.277,15.238,15.238,0,0,1,2.5-.129A16.469,16.469,0,0,1,132.372-299.154Z" transform="translate(-101.627 299.176)" fill="#ffc334"/>
      <path id="Path_318" data-name="Path 318" d="M106.256-293.723a5.544,5.544,0,0,0-1.053,1.163,27.228,27.228,0,0,1,12.294-4.289,3.2,3.2,0,0,1,.624-.686,6.108,6.108,0,0,1,2.673-1.177,17.2,17.2,0,0,0-3.965.386c.632-.134,1.47-.267,2.12-.379a29.658,29.658,0,0,0-11.912,4.417l-.494.34C106.446-293.875,106.348-293.8,106.256-293.723Z" transform="translate(-93.276 299.003)" fill="#ffc334"/>
      <path id="Path_319" data-name="Path 319" d="M138.641-298.689a18.125,18.125,0,0,0-5.16-.167,18.466,18.466,0,0,1,9.325,4.107C141.643-297.089,140.209-298.375,138.641-298.689Z" transform="translate(-103.885 299.1)" fill="#ffc334"/>
      <path id="Path_320" data-name="Path 320" d="M140.284-298.716l.113.018q-1.041-.171-2.106-.268l.029,0C138.911-298.9,139.7-298.8,140.284-298.716Z" transform="translate(-105.689 299.097)" fill="#ffc334"/>
      <path id="Path_322" data-name="Path 322" d="M165.219-287.31a7.5,7.5,0,0,1,2.216,3.507,24.248,24.248,0,0,1,6.786,10.393,6.911,6.911,0,0,0-.191-.705l.006.017a29.846,29.846,0,0,0-7.584-12.168l.264.253A13.449,13.449,0,0,0,165.219-287.31Z" transform="translate(-115.791 294.725)" fill="#ffc334"/>
      <path id="Path_323" data-name="Path 323" d="M137.874-285.647a29.629,29.629,0,0,0,3.359,1.363c1.01-3.269,1.816-6.014,2.316-7.929a26.79,26.79,0,0,0-8.086,5.266A26.443,26.443,0,0,0,137.874-285.647Z" transform="translate(-104.628 296.564)" fill="#ffc334"/>
      <path id="Path_324" data-name="Path 324" d="M158.578-292.292c-.271-.168-.546-.329-.822-.489l.061.036Z" transform="translate(-112.991 296.777)" fill="#ffc334"/>
      <path id="Path_325" data-name="Path 325" d="M178.453-261.13a4.83,4.83,0,0,1-1.854,4.083,7.971,7.971,0,0,1-.844.605A29.211,29.211,0,0,1,175-242.918a8.518,8.518,0,0,0,.972-.705,5.862,5.862,0,0,0,1.915-2.771,29.84,29.84,0,0,0,1.278-8.651c0-.659-.029-1.311-.071-1.96-.038-.441-.071-.805-.1-1.118A24.234,24.234,0,0,0,178.453-261.13Z" transform="translate(-119.462 284.903)" fill="#ffc334"/>
      <path id="Path_326" data-name="Path 326" d="M181.411-256.251c-.02-.218-.044-.435-.069-.652.011.113.023.236.034.366C181.388-256.442,181.4-256.347,181.411-256.251Z" transform="translate(-121.84 283.317)" fill="#ffc334"/>
      <path id="Path_327" data-name="Path 327" d="M99.931-220.422q.3.217.62.434c-1.734-1.392-2.816-3.674-3.145-6.652a26.673,26.673,0,0,1-6.762-6.19,18.657,18.657,0,0,0,2.224,4.991c.029.043.057.087.084.129q.174.27.358.533a30.033,30.033,0,0,0,6.2,6.44c.111.085.22.171.336.255Z" transform="translate(-87.815 274.287)" fill="#ffc334"/>
      <path id="Path_328" data-name="Path 328" d="M157.915-289.834a17.169,17.169,0,0,0-9.511-2.383A28.862,28.862,0,0,1,159.9-286.7,6.753,6.753,0,0,0,157.915-289.834Z" transform="translate(-109.483 296.567)" fill="#ffc334"/>
      <path id="Path_330" data-name="Path 330" d="M152.123-282.874a26.635,26.635,0,0,0-4.488-9.34,65.461,65.461,0,0,1-1.282,8.263A26.138,26.138,0,0,0,152.123-282.874Z" transform="translate(-108.714 296.564)" fill="#ffc334"/>
      <path id="Path_331" data-name="Path 331" d="M158.067-283.541a32.191,32.191,0,0,0-9.663-8.673,27.071,27.071,0,0,1,5.384,9.378A10.2,10.2,0,0,0,158.067-283.541Z" transform="translate(-109.483 296.564)" fill="#ffc334"/>
      <path id="Path_332" data-name="Path 332" d="M160.194-291.279c.2.134.4.271.591.4C160.59-291.012,160.393-291.147,160.194-291.279Z" transform="translate(-113.906 296.214)" fill="#ffc334"/>
      <path id="Path_333" data-name="Path 333" d="M165.763-286.982l.292.264Q165.91-286.851,165.763-286.982Z" transform="translate(-115.995 294.601)" fill="#ffc334"/>
      <path id="Path_334" data-name="Path 334" d="M158.592-283.822a4.138,4.138,0,0,0,.429-.3,2.46,2.46,0,0,0,.944-2.073,30.184,30.184,0,0,0-11.56-6.014A32.621,32.621,0,0,1,158.592-283.822Z" transform="translate(-109.483 296.564)" fill="#ffc334"/>
      <line id="Line_1821" data-name="Line 1821" x1="0.043" y2="0.11" transform="translate(2.177 18.551)" fill="#fff" stroke="#fff" stroke-linecap="round" stroke-linejoin="round" stroke-width="0"/>
      <path id="Path_338" data-name="Path 338" d="M94.2-224.842l.084.129C94.261-224.755,94.233-224.8,94.2-224.842Z" transform="translate(-89.15 271.29)" fill="#ffc334"/>
      <path id="Path_340" data-name="Path 340" d="M94.7-224.105l.023.034L94.7-224.1q-.184-.263-.358-.533C94.462-224.449,94.582-224.27,94.7-224.105Z" transform="translate(-89.201 271.213)" fill="#ffc334"/>
      <path id="Path_351" data-name="Path 351" d="M156.64-293.413l-.018-.01Z" transform="translate(-112.566 297.018)" fill="#ffc334"/>
    </g>
  </g>
</svg>
